<?xml version="1.0" encoding="utf-8"?>
<!-- Generator: Adobe Illustrator 24.0.2, SVG Export Plug-In . SVG Version: 6.00 Build 0)  -->
<svg version="1.2" baseProfile="tiny" id="Layer_4" xmlns="http://www.w3.org/2000/svg" xmlns:xlink="http://www.w3.org/1999/xlink"
	 x="0px" y="0px" viewBox="0 0 400 400" xml:space="preserve">
<g>
	<path fill="none" d="M300.9,266.3l-3.7-7.7c-0.4,0.6-0.7,1.2-1,1.9c-0.3,0.6-0.6,1.3-0.8,2s-0.5,1.3-0.7,2
		c-0.2,0.7-0.4,1.3-0.6,1.9c-0.2,0.7-0.4,1.3-0.7,1.9c-0.3,0.6-0.5,1.2-0.8,1.8c1.1-0.6,2.3-1.3,3.8-2
		C297.7,267.3,299.2,266.7,300.9,266.3z"/>
	<path fill="none" d="M161.7,270c1.1-0.6,2.3-1.3,3.8-2c1.4-0.7,3-1.3,4.6-1.8l-3.7-7.7c-0.4,0.6-0.7,1.2-1,1.9
		c-0.3,0.6-0.6,1.3-0.8,2s-0.5,1.3-0.7,2c-0.2,0.7-0.4,1.3-0.6,1.9c-0.2,0.7-0.4,1.3-0.7,1.9C162.3,268.8,162,269.4,161.7,270z"/>
	<path fill="none" d="M131,276.2c1.3,0,2.5-0.2,3.6-0.6c1-0.4,1.9-1,2.7-1.7c0.8-0.7,1.4-1.6,1.9-2.5c0.5-1,0.9-2,1.2-3
		c0.3-1,0.5-2.1,0.7-3.2c0.1-1.1,0.2-2.1,0.2-3c0-1.9-0.3-3.6-0.8-5.1c-0.5-1.4-1.2-2.7-2-3.8c-0.8-1.1-1.8-1.9-2.9-2.6
		c-1.1-0.7-2.2-1.3-3.4-1.7c-1.2-0.4-2.3-0.8-3.5-1c-1.2-0.2-2.2-0.3-3.2-0.4v27.5c0.8,0.4,1.7,0.7,2.6,0.9
		C129.3,276.1,130.2,276.2,131,276.2z"/>
	<path d="M330,155c-35.5,0-64.8,17-69.4,39H140v-9H0v30h140v-9h120.6c4.6,22,33.9,39,69.4,39c38.7,0,70-20.1,70-45
		C400,175.1,368.7,155,330,155z"/>
	<path d="M115.1,155.9c0.4,0,0.7,0,1.1,0.1c0.4,0.1,0.8,0.1,1.3,0.2c0.5,0.1,1.2,0.1,2.1,0.2c0.8,0.1,1.9,0.1,3.2,0.1
		c1.4,0,2.8,0,4.2-0.1c1.5-0.1,2.9-0.3,4.3-0.5c1.4-0.3,2.7-0.6,3.9-1.1c1.2-0.5,2.3-1.1,3.2-1.9c0.9-0.8,1.6-1.7,2.2-2.9
		c0.5-1.1,0.8-2.5,0.8-4c0-1.2-0.2-2.2-0.6-3.1c-0.4-0.9-0.9-1.6-1.6-2.2c-0.7-0.6-1.4-1.1-2.3-1.5c-0.9-0.4-1.7-0.7-2.6-0.9
		c-0.9-0.2-1.8-0.4-2.6-0.5c-0.9-0.1-1.6-0.2-2.3-0.3c-0.4,0-0.8-0.1-1.3-0.1c-0.5-0.1-1.1-0.2-1.7-0.3c-0.6-0.1-1.2-0.3-1.8-0.6
		c-0.6-0.2-1.1-0.6-1.6-0.9s-0.9-0.9-1.1-1.4c-0.3-0.6-0.4-1.2-0.4-2c0-0.9,0.2-1.7,0.6-2.5c0.4-0.8,0.9-1.4,1.6-2
		c0.7-0.6,1.4-1,2.2-1.3c0.8-0.3,1.7-0.5,2.6-0.5c1.3,0,2.4,0.1,3.4,0.2s1.7,0.4,2.3,0.6c0.6,0.3,1.2,0.6,1.6,1
		c0.4,0.4,0.8,0.8,1,1.2s0.5,0.9,0.7,1.5c0.2,0.5,0.4,1,0.6,1.6l1,0c-0.2-0.6-0.3-1.2-0.4-1.8c-0.1-0.6-0.2-1.1-0.2-1.8
		c0-0.5,0-1,0.1-1.5c0.1-0.5,0.2-1.1,0.3-1.8c-0.5,0-1,0-1.5-0.1c-0.6,0-1.2-0.1-1.8-0.2c-0.7-0.1-1.4-0.1-2.1-0.2
		c-0.8-0.1-1.6-0.1-2.5-0.1c-1,0-2.1,0.1-3.3,0.2c-1.2,0.1-2.4,0.3-3.7,0.6s-2.4,0.7-3.6,1.1c-1.2,0.5-2.2,1.1-3.1,1.8
		c-0.9,0.7-1.6,1.6-2.2,2.7c-0.5,1-0.8,2.2-0.8,3.6c0,1.2,0.2,2.2,0.6,3c0.4,0.8,0.9,1.6,1.5,2.1c0.6,0.6,1.4,1.1,2.2,1.5
		c0.8,0.4,1.7,0.7,2.6,0.9c0.9,0.2,1.8,0.4,2.7,0.5c0.9,0.1,1.7,0.2,2.5,0.3c1,0.1,2,0.3,3,0.5c1,0.2,1.8,0.5,2.6,0.8
		c0.8,0.4,1.4,0.9,1.8,1.5s0.7,1.4,0.7,2.4c0,0.9-0.2,1.8-0.6,2.6c-0.4,0.9-0.9,1.6-1.6,2.3c-0.7,0.7-1.5,1.2-2.5,1.6
		c-1,0.4-2,0.6-3.2,0.6c-1,0-2-0.2-3.1-0.5c-1.1-0.3-2.1-0.7-3.1-1.3c-1-0.6-1.9-1.2-2.7-2c-0.8-0.8-1.4-1.6-1.8-2.5l-1,0
		c0.2,0.6,0.3,1.2,0.4,1.8c0.1,0.6,0.2,1.1,0.2,1.8c0,0.5,0,1-0.1,1.5C115.3,154.7,115.2,155.3,115.1,155.9z"/>
	<path d="M153.5,126.8c0.1-0.2,0.2-0.4,0.4-0.5c0.2-0.1,0.5-0.3,0.8-0.3c0.4-0.1,0.8-0.1,1.4-0.1v-0.8h-14.4v0.8
		c0.8,0,1.5,0.1,2.1,0.3c0.6,0.2,1.1,0.5,1.5,0.8s0.7,0.6,1,1c0.2,0.4,0.4,0.7,0.5,1h0c0.6,2.2,1.2,4.4,1.8,6.6
		c0.6,2.1,1.3,4.3,2,6.5c0.7,2.2,1.4,4.4,2.1,6.7c0.7,2.3,1.5,4.7,2.2,7.2l7.2-1.3c1.1-2.5,2.1-5.1,3.1-7.7c1-2.6,2-5.2,2.9-7.9
		c0.7,2.6,1.4,5.4,2.2,8.1c0.8,2.8,1.6,5.7,2.6,8.8l7.2-1.3c1-2.3,2-4.8,3.1-7.2c1-2.5,2.1-5,3.1-7.5c1-2.5,2-5,2.9-7.5
		c0.9-2.5,1.7-4.9,2.5-7.3h-9.5v0.8c0.7,0,1.3,0.1,1.7,0.2c0.5,0.1,0.8,0.3,1.1,0.5c0.3,0.2,0.5,0.5,0.6,0.8c0.1,0.3,0.2,0.6,0.2,1
		v0.1c-0.3,1.5-0.6,3-1,4.7c-0.4,1.7-0.9,3.5-1.4,5.5s-1.2,4.1-2,6.5c-0.8,2.3-1.6,4.9-2.7,7.7c-0.7-2.5-1.4-4.8-2-6.9
		c-0.6-2.1-1.2-4.2-1.7-6.1c-0.5-2-1-3.9-1.5-5.8c-0.5-1.9-0.9-3.9-1.4-6v-0.3c0-0.2,0-0.5,0.1-0.7c0.1-0.2,0.2-0.4,0.4-0.5
		c0.2-0.1,0.5-0.3,0.8-0.3c0.4-0.1,0.8-0.1,1.4-0.1v-0.8h-14.4v0.8c0.8,0,1.5,0.1,2.1,0.3c0.6,0.2,1.1,0.5,1.5,0.8
		c0.4,0.3,0.7,0.6,1,1c0.2,0.4,0.4,0.7,0.5,1l0.8,3.2c-0.2,1.3-0.5,2.7-0.8,4.2c-0.3,1.5-0.7,3-1.1,4.7c-0.4,1.7-1,3.5-1.6,5.4
		c-0.6,1.9-1.3,4-2.1,6.2c-0.7-2.5-1.4-4.8-2.1-6.9c-0.7-2.1-1.3-4.2-2-6.2s-1.2-3.9-1.8-5.9c-0.6-1.9-1.1-3.9-1.6-6v-0.2
		C153.4,127.3,153.4,127,153.5,126.8z"/>
	<path d="M203.1,133.1c0.5-1,1-1.9,1.6-2.7s1.3-1.6,2.1-2.2c0.8-0.6,1.6-1.1,2.4-1.4c0.9-0.4,1.8-0.5,2.8-0.5c0.9,0,1.8,0.1,2.7,0.4
		c0.9,0.3,1.8,0.6,2.6,1.1c0.8,0.5,1.6,1.1,2.2,1.8c0.7,0.7,1.2,1.5,1.6,2.4l1,0c-0.2-0.6-0.3-1.2-0.4-1.8c-0.1-0.6-0.2-1.1-0.2-1.8
		c0-0.5,0-0.9,0.1-1.5c0.1-0.5,0.2-1.1,0.3-1.8c-0.8,0-1.7,0-2.9,0c-1.1,0-2.4,0-3.6,0c-1.3,0-2.7,0-4,0.1c-1.3,0.1-2.5,0.2-3.5,0.5
		c-1.9,0.4-3.8,1.1-5.5,2c-1.7,0.9-3.2,2.1-4.5,3.4c-1.3,1.4-2.3,3-3.1,4.9c-0.8,1.9-1.2,3.9-1.2,6.3c0,2.2,0.5,4.3,1.5,6.1
		c1,1.8,2.2,3.4,3.8,4.7s3.5,2.3,5.6,3s4.4,1.1,6.8,1.1c1.2,0,2.4-0.1,3.5-0.3c1.1-0.2,2-0.5,2.9-0.8s1.6-0.7,2.2-1.1
		c0.6-0.4,1.1-0.9,1.4-1.3l0.3-3c-0.1,0.1-0.2,0.3-0.3,0.5c-0.1,0.3-0.3,0.6-0.6,0.9c-0.3,0.3-0.6,0.7-1,1.1c-0.4,0.4-0.9,0.7-1.5,1
		c-0.6,0.3-1.3,0.6-2.2,0.8c-0.8,0.2-1.8,0.3-2.9,0.3c-1.2,0-2.3-0.2-3.4-0.5s-2.1-0.8-3-1.5s-1.7-1.4-2.4-2.2
		c-0.7-0.8-1.3-1.8-1.8-2.8s-0.9-2.1-1.2-3.2s-0.4-2.3-0.4-3.4v-0.9h8.9c1.5,0,2.6,0.1,3.6,0.2c0.9,0.1,1.6,0.4,2.2,0.7
		s1,0.8,1.2,1.4s0.5,1.4,0.7,2.3l0.7-0.1c0-0.6,0.1-1.3,0.2-2c0.1-0.6,0.2-1.2,0.3-1.9s0.4-1.3,0.7-1.9h-18.3
		c0.1-1.1,0.3-2.1,0.6-3.2C202.2,135.1,202.6,134.1,203.1,133.1z"/>
	<path d="M235.3,133.1c0.5-1,1-1.9,1.6-2.7c0.6-0.8,1.3-1.6,2.1-2.2c0.8-0.6,1.6-1.1,2.4-1.4c0.9-0.4,1.8-0.5,2.8-0.5
		c0.9,0,1.8,0.1,2.7,0.4c0.9,0.3,1.8,0.6,2.6,1.1c0.8,0.5,1.6,1.1,2.2,1.8c0.7,0.7,1.2,1.5,1.6,2.4l1,0c-0.2-0.6-0.3-1.2-0.4-1.8
		c-0.1-0.6-0.2-1.1-0.2-1.8c0-0.5,0-0.9,0.1-1.5c0.1-0.5,0.2-1.1,0.3-1.8c-0.8,0-1.7,0-2.9,0c-1.1,0-2.4,0-3.6,0c-1.3,0-2.7,0-4,0.1
		c-1.3,0.1-2.5,0.2-3.5,0.5c-1.9,0.4-3.8,1.1-5.5,2c-1.7,0.9-3.2,2.1-4.5,3.4c-1.3,1.4-2.3,3-3.1,4.9c-0.8,1.9-1.2,3.9-1.2,6.3
		c0,2.2,0.5,4.3,1.5,6.1c1,1.8,2.2,3.4,3.8,4.7s3.5,2.3,5.6,3s4.4,1.1,6.8,1.1c1.2,0,2.4-0.1,3.5-0.3c1.1-0.2,2-0.5,2.9-0.8
		c0.9-0.3,1.6-0.7,2.2-1.1c0.6-0.4,1.1-0.9,1.4-1.3l0.3-3c-0.1,0.1-0.2,0.3-0.3,0.5c-0.1,0.3-0.3,0.6-0.6,0.9
		c-0.3,0.3-0.6,0.7-1,1.1c-0.4,0.4-0.9,0.7-1.5,1c-0.6,0.3-1.3,0.6-2.2,0.8c-0.8,0.2-1.8,0.3-2.9,0.3c-1.2,0-2.3-0.2-3.4-0.5
		s-2.1-0.8-3-1.5s-1.7-1.4-2.4-2.2c-0.7-0.8-1.3-1.8-1.8-2.8c-0.5-1-0.9-2.1-1.2-3.2c-0.3-1.1-0.4-2.3-0.4-3.4v-0.9h8.9
		c1.5,0,2.6,0.1,3.6,0.2c0.9,0.1,1.6,0.4,2.2,0.7c0.5,0.3,1,0.8,1.2,1.4c0.3,0.6,0.5,1.4,0.7,2.3l0.7-0.1c0-0.6,0.1-1.3,0.2-2
		c0.1-0.6,0.2-1.2,0.3-1.9c0.2-0.7,0.4-1.3,0.7-1.9h-18.3c0.1-1.1,0.3-2.1,0.6-3.2C234.5,135.1,234.9,134.1,235.3,133.1z"/>
	<path d="M287.1,128.8c0-0.4,0.1-0.8,0.1-1.2c0.1-0.4,0.2-0.8,0.3-1.3c0.1-0.4,0.3-0.8,0.5-1.2H258c0,0.8-0.1,1.5-0.2,2.3
		c-0.1,0.6-0.3,1.3-0.5,2.1c-0.2,0.7-0.5,1.4-0.9,2l0.9,0.1c0.6-1,1.3-1.8,2.1-2.4c0.8-0.6,1.6-1.1,2.4-1.5c0.8-0.4,1.7-0.6,2.5-0.7
		c0.8-0.1,1.6-0.2,2.4-0.2h2.7v25.4c0,0.4-0.1,0.8-0.2,1.1c-0.1,0.4-0.3,0.7-0.6,0.9c-0.3,0.3-0.7,0.5-1.1,0.7
		c-0.5,0.2-1.1,0.2-1.9,0.2v0.8H280v-0.8c-0.8,0-1.5-0.1-2-0.3c-0.5-0.2-0.9-0.5-1.1-0.8c-0.3-0.3-0.5-0.6-0.5-1s-0.1-0.7-0.1-0.9
		v-25.4h2.7c0.3,0,0.6,0,1.1,0c0.5,0,0.9,0.1,1.5,0.2c0.5,0.1,1.1,0.2,1.6,0.4c0.5,0.2,1,0.4,1.5,0.7c0.5,0.3,0.8,0.7,1.1,1.1
		c0.3,0.5,0.5,1,0.5,1.7l0.8-0.1c0-0.1,0-0.2,0-0.3c0-0.1,0-0.2,0-0.3c0-0.1,0-0.3,0-0.4C287,129.5,287,129.2,287.1,128.8z"/>
	<path d="M109.4,246c-0.5,0-1,0-1.5-0.1c-0.6,0-1.2-0.1-1.8-0.2c-0.7-0.1-1.4-0.1-2.1-0.2c-0.8-0.1-1.6-0.1-2.5-0.1
		c-1,0-2.1,0.1-3.3,0.2c-1.2,0.1-2.4,0.3-3.7,0.6s-2.4,0.7-3.6,1.1c-1.2,0.5-2.2,1.1-3.1,1.8c-0.9,0.7-1.6,1.6-2.2,2.7
		c-0.5,1-0.8,2.2-0.8,3.6c0,1.2,0.2,2.2,0.6,3c0.4,0.8,0.9,1.6,1.5,2.1c0.6,0.6,1.4,1.1,2.2,1.5c0.8,0.4,1.7,0.7,2.6,0.9
		c0.9,0.2,1.8,0.4,2.7,0.5c0.9,0.1,1.7,0.2,2.5,0.3c1,0.1,2,0.3,3,0.5c1,0.2,1.8,0.5,2.6,0.8c0.8,0.4,1.4,0.9,1.8,1.5
		s0.7,1.4,0.7,2.4c0,0.9-0.2,1.8-0.6,2.6c-0.4,0.9-0.9,1.6-1.6,2.3c-0.7,0.7-1.5,1.2-2.5,1.6c-1,0.4-2,0.6-3.2,0.6
		c-1,0-2-0.2-3.1-0.5c-1.1-0.3-2.1-0.7-3.1-1.3c-1-0.6-1.9-1.2-2.7-2c-0.8-0.8-1.4-1.6-1.8-2.5l-1,0c0.2,0.6,0.3,1.2,0.4,1.8
		c0.1,0.6,0.2,1.1,0.2,1.8c0,0.5,0,1-0.1,1.5c-0.1,0.5-0.2,1.1-0.3,1.8c0.4,0,0.7,0,1.1,0.1c0.4,0.1,0.8,0.1,1.3,0.2
		c0.5,0.1,1.2,0.1,2.1,0.2c0.8,0.1,1.9,0.1,3.2,0.1c1.4,0,2.8,0,4.2-0.1c1.5-0.1,2.9-0.3,4.3-0.5c1.4-0.3,2.7-0.6,3.9-1.1
		c1.2-0.5,2.3-1.1,3.2-1.9c0.9-0.8,1.6-1.7,2.2-2.9c0.5-1.1,0.8-2.5,0.8-4c0-1.2-0.2-2.2-0.6-3.1c-0.4-0.9-0.9-1.6-1.6-2.2
		c-0.7-0.6-1.4-1.1-2.3-1.5c-0.9-0.4-1.7-0.7-2.6-0.9c-0.9-0.2-1.8-0.4-2.6-0.5c-0.9-0.1-1.6-0.2-2.3-0.3c-0.4,0-0.8-0.1-1.3-0.1
		c-0.5-0.1-1.1-0.2-1.7-0.3c-0.6-0.1-1.2-0.3-1.8-0.6c-0.6-0.2-1.1-0.6-1.6-0.9s-0.9-0.9-1.1-1.4c-0.3-0.6-0.4-1.2-0.4-2
		c0-0.9,0.2-1.7,0.6-2.5c0.4-0.8,0.9-1.4,1.6-2c0.7-0.6,1.4-1,2.2-1.3c0.8-0.3,1.7-0.5,2.6-0.5c1.3,0,2.4,0.1,3.4,0.2
		s1.7,0.4,2.3,0.6c0.6,0.3,1.2,0.6,1.6,1c0.4,0.4,0.8,0.8,1,1.2s0.5,0.9,0.7,1.5c0.2,0.5,0.4,1,0.6,1.6l1,0
		c-0.2-0.6-0.3-1.2-0.4-1.8c-0.1-0.6-0.2-1.1-0.2-1.8c0-0.5,0-1,0.1-1.5C109.2,247.2,109.3,246.6,109.4,246z"/>
	<path d="M120.2,289.2c0.5-0.7,1-1.3,1.5-1.9c0.5-0.6,1-1.2,1.5-1.7c0.5-0.5,0.9-1,1.3-1.5c0.4-0.5,0.7-0.9,0.9-1.3s0.4-0.8,0.4-1.1
		v-4.5c0.7,0.2,1.4,0.3,2.1,0.4c0.7,0.1,1.4,0.1,2.2,0.1c2.9,0,5.5-0.5,7.8-1.4s4.2-2.2,5.8-3.7c1.6-1.6,2.8-3.4,3.6-5.5
		c0.8-2.1,1.2-4.3,1.2-6.6c0-1.6-0.2-3.1-0.7-4.4s-1.1-2.4-1.9-3.4c-0.8-1-1.7-1.8-2.8-2.6c-1.1-0.7-2.2-1.3-3.4-1.8
		c-1.2-0.5-2.4-0.9-3.7-1.2c-1.3-0.3-2.5-0.5-3.8-0.7c-1.2-0.2-2.4-0.3-3.5-0.3c-1.1-0.1-2.1-0.1-3-0.1h-10.6v0.8
		c0.8,0,1.4,0.1,1.9,0.3c0.5,0.2,0.9,0.4,1.1,0.7s0.5,0.6,0.6,0.9c0.1,0.3,0.2,0.6,0.2,0.9v41.7
		C119.3,290.5,119.7,289.8,120.2,289.2z M125.7,247.5c1,0.1,2,0.2,3.2,0.4c1.2,0.2,2.3,0.5,3.5,1c1.2,0.4,2.3,1,3.4,1.7
		c1.1,0.7,2,1.6,2.9,2.6c0.8,1.1,1.5,2.3,2,3.8c0.5,1.4,0.8,3.1,0.8,5.1c0,1-0.1,2-0.2,3c-0.1,1.1-0.4,2.1-0.7,3.2
		c-0.3,1-0.7,2-1.2,3c-0.5,1-1.2,1.8-1.9,2.5c-0.8,0.7-1.7,1.3-2.7,1.7c-1,0.4-2.2,0.6-3.6,0.6c-0.9,0-1.8-0.1-2.7-0.2
		c-0.9-0.1-1.8-0.4-2.6-0.9V247.5z"/>
	<path d="M161.1,260.1c-0.5,0.8-1,1.6-1.4,2.5c-0.4,0.9-0.7,1.7-0.9,2.4c-0.4,1.3-0.9,2.6-1.4,3.8c-0.5,1.2-1.1,2.3-1.9,3.3
		s-1.6,1.8-2.6,2.4c-1,0.7-2.2,1.1-3.6,1.3l0.2,0.9c1.2,0,2.3-0.1,3.3-0.3c1-0.2,1.9-0.4,2.7-0.7s1.6-0.7,2.2-1.2
		c0.7-0.5,1.3-1,1.8-1.6c0.3-0.2,0.7-0.5,1.4-1c0.7-0.4,1.5-0.9,2.5-1.4c1-0.5,2.1-1.1,3.3-1.6c1.3-0.5,2.6-1,4-1.4l0.5,1.1
		c0.3,0.6,0.6,1.3,0.9,2c0.3,0.7,0.6,1.4,1,2c0.4,0.7,0.8,1.3,1.3,1.8c0.5,0.6,1,1,1.7,1.4c0.3,0.2,0.7,0.3,1.1,0.4
		c0.4,0.1,0.8,0.2,1.3,0.3c0.5,0.1,1.1,0.1,1.8,0.1c0.9,0,1.8-0.1,2.9-0.3c1.1-0.2,2.3-0.5,3.6-1.1l-0.3-1c-0.4,0.2-0.8,0.3-1.1,0.3
		c-0.4,0-0.6,0.1-0.8,0.1c-0.6,0-1.1-0.1-1.5-0.3c-0.4-0.2-0.8-0.5-1.2-0.9c-0.4-0.4-0.7-0.8-1-1.2c-0.3-0.5-0.6-0.9-0.8-1.4
		c-1.4-2.6-2.8-5.3-4-8c-1.2-2.7-2.5-5.4-3.8-8.1c-0.2-0.4-0.4-0.9-0.7-1.4c-0.3-0.6-0.5-1.1-0.8-1.8c-0.3-0.6-0.6-1.2-1-1.8
		c-0.4-0.6-0.7-1.2-1.1-1.7c-0.4-0.5-0.8-1-1.3-1.4c-0.4-0.4-0.9-0.7-1.4-0.8c-0.5-0.2-1.1-0.3-1.7-0.4c-0.6-0.1-1.2-0.1-1.8-0.1
		c-1.3,0-2.5,0.1-3.8,0.4c-1.3,0.3-2.5,0.6-3.8,1.1l0.3,0.9c0.5-0.2,1-0.3,1.6-0.5c0.6-0.1,1.1-0.2,1.7-0.2c0.8,0,1.5,0.2,2.1,0.6
		c0.6,0.4,1,0.9,1.4,1.5c0.4,0.6,0.8,1.2,1.1,1.9c0.3,0.7,0.6,1.3,0.9,1.9c0.2,0.5,0.4,1,0.7,1.5c0.2,0.5,0.5,0.9,0.7,1.4
		c-0.9,0.5-1.7,1.1-2.4,1.8C162.2,258.6,161.6,259.3,161.1,260.1z M163.9,264.4c0.2-0.7,0.5-1.3,0.7-2s0.5-1.3,0.8-2
		c0.3-0.6,0.6-1.3,1-1.9l3.7,7.7c-1.6,0.5-3.2,1.1-4.6,1.8c-1.4,0.7-2.7,1.3-3.8,2c0.3-0.6,0.6-1.2,0.8-1.8c0.3-0.6,0.5-1.3,0.7-1.9
		C163.5,265.7,163.7,265,163.9,264.4z"/>
	<path d="M213.5,249.7c0-0.4,0.1-0.8,0.1-1.2c0.1-0.4,0.2-0.8,0.3-1.3s0.3-0.8,0.5-1.2h-29.9c0,0.8-0.1,1.5-0.2,2.3
		c-0.1,0.6-0.3,1.3-0.5,2.1c-0.2,0.7-0.5,1.4-0.9,2l0.9,0.1c0.6-1,1.3-1.8,2.1-2.4c0.8-0.6,1.6-1.1,2.4-1.5c0.8-0.4,1.7-0.6,2.5-0.7
		c0.8-0.1,1.6-0.2,2.4-0.2h2.7V273c0,0.4-0.1,0.8-0.2,1.1c-0.1,0.4-0.3,0.7-0.6,0.9c-0.3,0.3-0.7,0.5-1.1,0.7
		c-0.5,0.2-1.1,0.2-1.9,0.2v0.8h14.4V276c-0.8,0-1.5-0.1-2-0.3c-0.5-0.2-0.9-0.5-1.1-0.8s-0.5-0.6-0.5-1s-0.1-0.7-0.1-0.9v-25.4h2.7
		c0.3,0,0.6,0,1.1,0c0.5,0,0.9,0.1,1.5,0.2c0.5,0.1,1.1,0.2,1.6,0.4c0.5,0.2,1,0.4,1.5,0.7c0.5,0.3,0.8,0.7,1.1,1.1
		c0.3,0.5,0.5,1,0.5,1.7l0.8-0.1c0-0.1,0-0.2,0-0.3c0-0.1,0-0.2,0-0.3c0-0.1,0-0.3,0-0.4C213.5,250.4,213.5,250.1,213.5,249.7z"/>
	<path d="M225.1,253c0.5-1.4,1-2.5,1.6-3.5c0.6-1,1.1-1.8,1.7-2.4s1-1.1,1.3-1.5c0.4-0.3,0.6-0.5,0.6-0.6l-0.6-0.5
		c-2.6,1-4.9,2.4-7,4.1c-0.9,0.7-1.7,1.6-2.6,2.5c-0.8,1-1.6,2-2.2,3.2c-0.7,1.2-1.2,2.5-1.6,4c-0.4,1.5-0.6,3-0.6,4.8
		c0,1.6,0.2,3.1,0.6,4.4c0.4,1.3,1,2.5,1.8,3.6c0.8,1.1,1.6,2,2.7,2.8c1,0.8,2.1,1.5,3.3,2c1.2,0.5,2.4,1,3.7,1.2s2.6,0.4,3.9,0.4
		c1,0,2-0.1,2.9-0.3c0.9-0.2,1.7-0.5,2.5-0.9s1.4-0.8,2.1-1.3c0.6-0.5,1.2-1,1.7-1.6v3.2h10.6V276c-0.8,0-1.5-0.1-2-0.3
		c-0.5-0.2-0.9-0.5-1.1-0.8c-0.3-0.3-0.4-0.6-0.5-1c-0.1-0.3-0.1-0.7-0.1-0.9v-23.2c0-0.4,0-0.8,0.2-1.1c0.1-0.4,0.3-0.7,0.6-1
		s0.7-0.5,1.2-0.7c0.5-0.2,1.1-0.2,1.9-0.2V246h-14.4v0.8c0.8,0,1.5,0.1,2,0.3c0.5,0.2,0.9,0.5,1.1,0.8c0.3,0.3,0.4,0.6,0.5,1
		c0.1,0.4,0.1,0.7,0.1,1V267c0,1.3-0.2,2.6-0.7,3.7c-0.5,1.1-1.1,2.1-1.9,2.9c-0.8,0.8-1.7,1.4-2.7,1.9c-1,0.4-2.1,0.7-3.3,0.7
		c-1.3,0-2.5-0.3-3.6-0.8s-2-1.3-2.8-2.3c-0.8-1-1.4-2.3-1.9-3.9c-0.5-1.6-0.7-3.4-0.7-5.4c0-2.2,0.2-4.2,0.5-5.9
		C224.2,256,224.6,254.4,225.1,253z"/>
	<path d="M258.3,274.2c-0.1,0.3-0.3,0.6-0.6,0.9c-0.3,0.3-0.7,0.5-1.2,0.6c-0.5,0.2-1.1,0.2-1.9,0.2v0.8h9.6c2,0,3.8,0,5.4,0
		s2.9,0,4,0.2c1.1,0.2,2,0.5,2.5,0.9c0.6,0.5,0.9,1.2,0.9,2.1c0,0.2,0,0.5,0,0.7s-0.1,0.5-0.1,0.8l1-0.2c0.2-0.8,0.4-1.5,0.6-2.3
		c0.2-0.6,0.5-1.3,0.9-2c0.2-0.3,0.3-0.6,0.5-0.9l0.2,0.8c1.2,0,2.3-0.1,3.3-0.3c1-0.2,1.9-0.4,2.7-0.7s1.6-0.7,2.2-1.2
		c0.7-0.5,1.3-1,1.8-1.6c0.3-0.2,0.7-0.5,1.4-1c0.7-0.4,1.5-0.9,2.5-1.4c1-0.5,2.1-1.1,3.3-1.6c1.3-0.5,2.6-1,4-1.4l0.5,1.1
		c0.3,0.6,0.6,1.3,0.9,2c0.3,0.7,0.6,1.4,1,2c0.4,0.7,0.8,1.3,1.3,1.8c0.5,0.6,1,1,1.7,1.4c0.3,0.2,0.7,0.3,1.1,0.4
		c0.4,0.1,0.8,0.2,1.3,0.3c0.5,0.1,1.1,0.1,1.8,0.1c0.9,0,1.8-0.1,2.9-0.3c1.1-0.2,2.3-0.5,3.6-1.1l-0.3-1c-0.4,0.2-0.8,0.3-1.1,0.3
		c-0.4,0-0.6,0.1-0.8,0.1c-0.6,0-1.1-0.1-1.5-0.3c-0.4-0.2-0.8-0.5-1.2-0.9c-0.4-0.4-0.7-0.8-1-1.2c-0.3-0.5-0.6-0.9-0.8-1.4
		c-1.4-2.6-2.8-5.3-4-8c-1.2-2.7-2.5-5.4-3.8-8.1c-0.2-0.4-0.4-0.9-0.7-1.4c-0.3-0.6-0.5-1.1-0.8-1.8c-0.3-0.6-0.6-1.2-1-1.8
		c-0.4-0.6-0.7-1.2-1.1-1.7c-0.4-0.5-0.8-1-1.3-1.4c-0.4-0.4-0.9-0.7-1.4-0.8c-0.5-0.2-1.1-0.3-1.7-0.4c-0.6-0.1-1.2-0.1-1.8-0.1
		c-1.3,0-2.5,0.1-3.8,0.4c-1.3,0.3-2.5,0.6-3.8,1.1l0.3,0.9c0.5-0.2,1-0.3,1.6-0.5c0.6-0.1,1.1-0.2,1.7-0.2c0.8,0,1.5,0.2,2.1,0.6
		c0.6,0.4,1,0.9,1.4,1.5c0.4,0.6,0.8,1.2,1.1,1.9c0.3,0.7,0.6,1.3,0.9,1.9c0.2,0.5,0.4,1,0.7,1.5c0.2,0.5,0.5,0.9,0.7,1.4
		c-0.9,0.5-1.7,1.1-2.4,1.8c-0.7,0.7-1.3,1.5-1.8,2.3c-0.5,0.8-1,1.6-1.4,2.5c-0.4,0.9-0.7,1.7-0.9,2.4c-0.4,1.3-0.9,2.6-1.4,3.8
		c-0.5,1.2-1.1,2.3-1.9,3.3s-1.6,1.8-2.6,2.4c-1,0.6-2.1,1.1-3.5,1.3c0.2-0.3,0.5-0.6,0.8-0.9h-15.6v-37.9h-10.6v0.8
		c0.8,0,1.4,0.1,1.9,0.3c0.5,0.2,0.9,0.4,1.1,0.7s0.5,0.6,0.6,0.9c0.1,0.3,0.2,0.6,0.2,0.9v32.3
		C258.5,273.5,258.4,273.9,258.3,274.2z M293.3,268.2c0.3-0.6,0.5-1.3,0.7-1.9c0.2-0.6,0.4-1.2,0.6-1.9c0.2-0.7,0.5-1.3,0.7-2
		s0.5-1.3,0.8-2c0.3-0.6,0.6-1.3,1-1.9l3.7,7.7c-1.6,0.5-3.2,1.1-4.6,1.8c-1.4,0.7-2.7,1.3-3.8,2C292.8,269.4,293,268.8,293.3,268.2
		z"/>
	<path d="M200,54c60.3,0,112.2,36.8,134.4,89.1c3,0.1,6,0.3,8.9,0.6C320.8,86.6,265.1,46,200,46c-75.7,0-138.8,54.9-151.6,127h8.1
		C69.2,105.4,128.7,54,200,54z"/>
	<path d="M200,346c-71.3,0-130.8-51.4-143.5-119h-8.1c12.8,72.1,75.9,127,151.6,127c65.1,0,120.8-40.6,143.4-97.7
		c-2.9,0.3-5.9,0.5-8.9,0.6C312.2,309.2,260.3,346,200,346z"/>
</g>
</svg>
