<?xml version="1.0" encoding="utf-8"?>
<!-- Generator: Adobe Illustrator 24.1.0, SVG Export Plug-In . SVG Version: 6.00 Build 0)  -->
<svg version="1.2" baseProfile="tiny" id="Layer_1" xmlns="http://www.w3.org/2000/svg" xmlns:xlink="http://www.w3.org/1999/xlink"
	 x="0px" y="0px" viewBox="0 0 24 24" xml:space="preserve">
<g id="Layer_2">
</g>
<path fill="#FFFFFF" d="M23,0H1H0v1v22v1h1h22h1v-1V1V0H23z M23,23H1V1h22V23z"/>
<path fill="#4DAF4E" d="M22,1H2H1v1v20v1h1h20h1v-1V2V1H22z M22,22H2V2h20V22z"/>
<path fill="#FFFFFF" d="M21,2H3H2v1v18v1h1h18h1v-1V3V2H21z M21,21H3V3h18V21z"/>
<circle fill="#FFFFFF" cx="12" cy="12" r="7"/>
<path id="path3729" fill="#4DAF4E" d="M12,6c-1.6,0-3.1,0.6-4.2,1.8S6,10.4,6,12c0,3.1,2.3,5.7,5.4,6c0-0.2,0-0.4,0-0.5
	c-0.2-1.8-0.6-3.5-1.2-5.2C9.4,10,7.9,7.8,7.9,7.8S8.6,8.2,9,8.4c0.5,0.4,1,1.1,1.4,1.7c1,1.6,1.7,5.1,1.7,5.1s0.8-2.1,1.3-3.1
	c0.4-0.9,1.1-1.8,1.6-2.6c-0.3,0-0.5,0.2-0.8,0.4c-0.3,0.3-0.9,1.2-0.9,1.2s0.1-1.1,0.2-1.4c0.2-0.5,0.5-1,1-1.2
	c0.3-0.2,1.7-0.4,2.1-0.5C15.4,6.8,13.7,6,12,6L12,6 M17.1,8.9c-0.1,0.6-0.2,1.4-0.5,1.8c-0.2,0.3-0.7,0.5-1,0.6
	c-0.5,0.2-1.2,0.3-1.2,0.3s-0.7,1.3-1,2c-0.5,1.4-0.8,2.9-1,4.3c0,0,0,0,0,0.1c3.1-0.2,5.6-2.8,5.6-6C18,10.9,17.7,9.8,17.1,8.9
	L17.1,8.9"/>
</svg>
