<?xml version="1.0" encoding="utf-8"?>
<!-- Generator: Adobe Illustrator 24.1.0, SVG Export Plug-In . SVG Version: 6.00 Build 0)  -->
<svg version="1.2" baseProfile="tiny" id="Layer_1" xmlns="http://www.w3.org/2000/svg" xmlns:xlink="http://www.w3.org/1999/xlink"
	 x="0px" y="0px" viewBox="0 0 24 24" xml:space="preserve">
<g id="Layer_2">
</g>
<path fill="#FFFFFF" d="M23,0H1H0v1v22v1h1h22h1v-1V1V0H23z M23,23H1V1h22V23z"/>
<path fill="#EF4438" d="M22,1H2H1v1v20v1h1h20h1v-1V2V1H22z M22,22H2V2h20V22z"/>
<path fill="#FFFFFF" d="M21,2H3H2v1v18v1h1h18h1v-1V3V2H21z M21,21H3V3h18V21z"/>
<circle fill="#EF4438" cx="12" cy="12" r="6"/>
<g>
	<path fill="#FFFFFF" d="M12,19c-3.9,0-7-3.1-7-7c0-3.9,3.1-7,7-7c3.9,0,7,3.1,7,7C19,15.9,15.9,19,12,19z M12,6c-3.3,0-6,2.7-6,6
		s2.7,6,6,6s6-2.7,6-6S15.3,6,12,6z"/>
</g>
</svg>
